<svg width="115" height="13" viewBox="0 0 115 13" fill="none" xmlns="http://www.w3.org/2000/svg">
<path d="M5.70312 10H7.0696L3.1179 4.70028L6.94034 0.545454H5.57386L1.78835 4.64489H1.28977V0.545454H0.144886V10H1.28977V5.66051H2.45312L5.70312 10ZM10.7616 10.1477C12.6821 10.1477 13.9747 8.68892 13.9747 6.49148C13.9747 4.27557 12.6821 2.81676 10.7616 2.81676C8.84118 2.81676 7.54856 4.27557 7.54856 6.49148C7.54856 8.68892 8.84118 10.1477 10.7616 10.1477ZM10.7616 9.16903C9.30282 9.16903 8.63805 7.91335 8.63805 6.49148C8.63805 5.0696 9.30282 3.79545 10.7616 3.79545C12.2204 3.79545 12.8852 5.0696 12.8852 6.49148C12.8852 7.91335 12.2204 9.16903 10.7616 9.16903ZM15.6378 12.6591H16.7273V8.91051H16.8196C17.0597 9.2983 17.5213 10.1477 18.8878 10.1477C20.6605 10.1477 21.8977 8.72585 21.8977 6.47301C21.8977 4.23864 20.6605 2.81676 18.8693 2.81676C17.4844 2.81676 17.0597 3.66619 16.8196 4.03551H16.6903V2.90909H15.6378V12.6591ZM16.7088 6.45455C16.7088 4.86648 17.4105 3.79545 18.7401 3.79545C20.125 3.79545 20.8082 4.95881 20.8082 6.45455C20.8082 7.96875 20.1065 9.16903 18.7401 9.16903C17.429 9.16903 16.7088 8.06108 16.7088 6.45455ZM26.4403 10.1477C28.3608 10.1477 29.6534 8.68892 29.6534 6.49148C29.6534 4.27557 28.3608 2.81676 26.4403 2.81676C24.5199 2.81676 23.2273 4.27557 23.2273 6.49148C23.2273 8.68892 24.5199 10.1477 26.4403 10.1477ZM26.4403 9.16903C24.9815 9.16903 24.3168 7.91335 24.3168 6.49148C24.3168 5.0696 24.9815 3.79545 26.4403 3.79545C27.8991 3.79545 28.5639 5.0696 28.5639 6.49148C28.5639 7.91335 27.8991 9.16903 26.4403 9.16903ZM30.3897 3.92472H32.7349V10H33.8244V3.92472H36.1511V2.90909H30.3897V3.92472ZM37.7403 10H38.8298V7.00852H39.8085L42.1352 10H43.5386L40.6395 6.32528L43.5017 2.90909H42.0983L39.55 5.9929H38.8298V2.90909H37.7403V10ZM47.3114 10.1477C49.2319 10.1477 50.5245 8.68892 50.5245 6.49148C50.5245 4.27557 49.2319 2.81676 47.3114 2.81676C45.391 2.81676 44.0984 4.27557 44.0984 6.49148C44.0984 8.68892 45.391 10.1477 47.3114 10.1477ZM47.3114 9.16903C45.8526 9.16903 45.1879 7.91335 45.1879 6.49148C45.1879 5.0696 45.8526 3.79545 47.3114 3.79545C48.7702 3.79545 49.435 5.0696 49.435 6.49148C49.435 7.91335 48.7702 9.16903 47.3114 9.16903ZM56.0654 8.52273L53.6279 2.90909H52.1876V10H53.2771V4.47408L55.6222 10H56.5086L58.8538 4.57564V10H59.9433V2.90909H58.5399L56.0654 8.52273ZM64.9106 10.1477C66.3509 10.1477 67.4035 9.42756 67.7359 8.35653L66.6833 8.06108C66.4063 8.79972 65.7646 9.16903 64.9106 9.16903C63.6318 9.16903 62.7501 8.34268 62.6993 6.82386H67.8467V6.36222C67.8467 3.72159 66.2771 2.81676 64.7998 2.81676C62.8794 2.81676 61.6052 4.33097 61.6052 6.50994C61.6052 8.68892 62.8609 10.1477 64.9106 10.1477ZM62.6993 5.8821C62.7732 4.77876 63.5534 3.79545 64.7998 3.79545C65.9816 3.79545 66.7387 4.68182 66.7387 5.8821H62.6993ZM68.8438 3.92472H71.189V10H72.2785V3.92472H74.6052V2.90909H68.8438V3.92472ZM76.1944 12.6591H77.2839V8.91051H77.3762C77.6163 9.2983 78.0779 10.1477 79.4444 10.1477C81.2172 10.1477 82.4544 8.72585 82.4544 6.47301C82.4544 4.23864 81.2172 2.81676 79.426 2.81676C78.041 2.81676 77.6163 3.66619 77.3762 4.03551H77.247V2.90909H76.1944V12.6591ZM77.2654 6.45455C77.2654 4.86648 77.9672 3.79545 79.2967 3.79545C80.6816 3.79545 81.3649 4.95881 81.3649 6.45455C81.3649 7.96875 80.6632 9.16903 79.2967 9.16903C77.9856 9.16903 77.2654 8.06108 77.2654 6.45455ZM86.2029 10.1662C87.4402 10.1662 88.0865 9.50142 88.3081 9.03977H88.3635V10H89.4529V5.32812C89.4529 3.07528 87.7356 2.81676 86.8308 2.81676C85.7598 2.81676 84.541 3.18608 83.987 4.47869L85.0211 4.84801C85.2612 4.33097 85.829 3.77699 86.8677 3.77699C87.8695 3.77699 88.3635 4.30788 88.3635 5.21733V5.25426C88.3635 5.78054 87.8279 5.73438 86.5353 5.90057C85.2196 6.07138 83.7839 6.36222 83.7839 7.98722C83.7839 9.37216 84.8549 10.1662 86.2029 10.1662ZM86.3691 9.1875C85.5012 9.1875 84.8734 8.79972 84.8734 8.04261C84.8734 7.21165 85.6305 6.95312 86.4799 6.84233C86.9416 6.78693 88.1788 6.65767 88.3635 6.43608V7.43324C88.3635 8.3196 87.6618 9.1875 86.3691 9.1875ZM90.9983 10H92.3094L94.7284 6.95312H95.2824V10H96.3719V6.95312H96.9259L99.3264 10H100.638L97.7753 6.39915L100.601 2.90909H99.308L96.9443 5.9375H96.3719V2.90909H95.2824V5.9375H94.6915L92.3279 2.90909H91.0352L93.879 6.39915L90.9983 10ZM102.194 10H103.284V7.00852H104.263L106.589 10H107.993L105.094 6.32528L107.956 2.90909H106.552L104.004 5.9929H103.284V2.90909H102.194V10ZM110.266 8.39347V2.90909H109.177V10H110.451L113.849 4.51562V10H114.938V2.90909H113.683L110.266 8.39347Z" fill="black"/>
</svg>
